<?xml version="1.0" encoding="utf-8"?>
<!-- Generator: Adobe Illustrator 25.2.1, SVG Export Plug-In . SVG Version: 6.00 Build 0)  -->
<svg version="1.1" id="Camada_1" xmlns="http://www.w3.org/2000/svg" xmlns:xlink="http://www.w3.org/1999/xlink" x="0px" y="0px"
	 viewBox="0 0 371.7 433.6" style="enable-background:new 0 0 371.7 433.6;" xml:space="preserve">
<style type="text/css">
	.st0{fill:#F2F2F2;}
	.st1{fill:#FFFFFF;}
	.st2{fill:#E6E6E6;}
	.st3{fill:#FFB6B6;}
	.st4{fill:#3F3D56;}
	.st5{fill:#F9A826;}
	.st6{fill:#2F2E41;}
	.st7{fill:#F0F0F0;}
	.st8{fill:#CACACA;}
</style>
<path class="st0" d="M346,164.3H25.5c-5.9,0-10.8-4.8-10.8-10.8V27.9c0-5.9,4.8-10.8,10.8-10.8H346c5.9,0,10.8,4.8,10.8,10.8v125.6
	C356.7,159.5,351.9,164.3,346,164.3z"/>
<path class="st1" d="M271.2,157.5H76.4c-30.2,0-54.7-24.5-54.8-54.8V78.8c0-30.2,24.5-54.7,54.8-54.8h218.7
	c30.2,0,54.7,24.5,54.8,54.8C349.8,122.2,314.6,157.4,271.2,157.5z"/>
<path class="st2" d="M221,60H92.2c-1.5,0-2.8-1.2-2.8-2.8c0-1.5,1.2-2.8,2.8-2.8H221c1.5,0,2.8,1.2,2.8,2.8
	C223.7,58.8,222.5,60,221,60z"/>
<path class="st2" d="M286.2,89.6h-194c-1.5,0-2.8-1.2-2.8-2.8c0-1.5,1.2-2.8,2.8-2.8h194c1.5,0,2.8,1.2,2.8,2.8
	C288.9,88.4,287.7,89.6,286.2,89.6z"/>
<path class="st2" d="M286.2,119.3h-194c-1.5,0-2.8-1.2-2.8-2.8c0-1.5,1.2-2.8,2.8-2.8h194c1.5,0,2.8,1.2,2.8,2.8
	C288.9,118,287.7,119.3,286.2,119.3z"/>
<path class="st2" d="M286.2,119.3h-194c-1.5,0-2.8-1.2-2.8-2.8c0-1.5,1.2-2.8,2.8-2.8h194c1.5,0,2.8,1.2,2.8,2.8
	C288.9,118,287.7,119.3,286.2,119.3z"/>
<path class="st3" d="M207.4,93c0.1,3.2,2.8,5.6,5.9,5.5c0.3,0,0.7-0.1,1-0.1l10.6,17.4l4.5-9.6l-10.8-15c-0.9-3.1-4.1-4.8-7.1-3.9
	C209,88,207.2,90.4,207.4,93L207.4,93z"/>
<path class="st4" d="M286.9,142.8L250.4,123l-11.5-10.8c0,0-5-1.3-3.2-3c1.8-1.6-3.4-3.2-3.4-3.2l-6.2-5.8l-8.8,6.2l2.5,3.9
	c0,0-0.2,6.5,3.4,5.3c3.6-1.3,2.7,4.2,2.7,4.2l21.3,33.1L286.9,142.8z"/>
<circle class="st5" cx="179.1" cy="88.5" r="35.7"/>
<polygon class="st3" points="287,402.6 279.6,402.6 276,374 287,374 "/>
<path class="st6" d="M290.9,415.4h-5.3l-0.9-5l-2.4,5h-14.1c-1.8,0-3.2-1.4-3.2-3.2c0-1,0.5-2,1.4-2.6l11.3-7.8v-5.1l11.8,0.7
	L290.9,415.4z"/>
<polygon class="st3" points="227.7,402.6 220.3,402.6 216.7,374 227.7,374 "/>
<path class="st6" d="M231.6,415.4h-5.3l-0.9-5l-2.4,5h-14.1c-1.8,0-3.2-1.4-3.2-3.2c0-1,0.5-2,1.4-2.6l11.3-7.8v-5.1l11.8,0.7
	L231.6,415.4z"/>
<rect x="241.7" y="186.3" class="st3" width="37.4" height="42.6"/>
<path class="st6" d="M242.5,207.3l-6.3,7.5l-10.9,23l-27.6,65.6l-5.8,13.9l4.7,24.5c0,0,0.8,17.3,0.8,20.1c0,5.8,4.8,8.9,4.8,8.9
	l3.5,18.4l34.3-1.4c0,0-1.2-20.3-8.4-25.4c-7.2-5.1-10.5-31.8-10.5-31.8l-3.9-11.8l38-45l0.2,15.7l0.1,7.6c0,0-5.6,49.6,0.9,59.2
	c6.5,9.6,0.1,8.5,0.1,8.5l0.3,19.8l40.6,0.3l-9-57.1c0,0-4.5-3.6-2.1-7.2c2.4-3.6-2.4-8-2.4-8l2.1-44.6c0,0-2.4-7.7,0.4-8.7
	c2.8-1,0.4-7.6,0.4-7.6l0.4-8.6l-8.3-26.8L242.5,207.3z"/>
<path class="st4" d="M279.7,186.3l4-12.1l2.9-4l1.2-11.5c0-31.1-6.9-25.9-6.9-25.9l-4-10.9l-18.4-0.6l-11.8,11.2l-9.8,3.5l-3.8,19.9
	l7,21.2l1.7,11.5c-3.3,6.1-3,3.2-0.3,7.8l32.5,8.9c11.5,4,11.5-6.3,9.2-8.9C280.8,193.8,279.7,186.3,279.7,186.3z"/>
<circle class="st3" cx="265.2" cy="100.3" r="17.1"/>
<path class="st6" d="M248.6,127.2"/>
<path class="st6" d="M288,123.1c0.6,1,0.3,2.3-0.7,2.9c-0.1,0.1-0.3,0.1-0.4,0.2c-2.3,0.8-3.7,3-5.3,4.7c-1.6,1.8-4.3,3.2-6.4,2
	c-2.1-1.2-2.2-4.3-4-5.9c-1.7-1.6-4.5-1.4-6.5-0.2l-0.1,0c-1,0.6-2.3,0.4-2.9-0.6c-0.3-0.5-0.4-1-0.3-1.5c0.7-3.7,1.4-7.5,2.1-11.2
	c-1.8,4.4-4.5,8.5-7.9,11.9c-0.9,1.1-2.1,1.9-3.4,2.4c-1.2,0.4-2.4-0.9-3.5-0.6c2.9-2.5,12.6-18.7,10.9-29.6c-2,0.2-4.1,0.5-6.1,0.7
	c-0.2-1-0.7-1.9-1.4-2.6c0.1,0.9,0,1.9-0.4,2.8c-0.9,0.1-1.7,0.2-2.6,0.3c-1.2,0.1-2.5,0.2-3.5-0.4c-1.7-1-1.8-3.5-1.3-5.4
	c1.4-5.6,5.7-10.3,11-12.8c5.3-2.5,6.8,3,12.3,1.3c10.9-3.5,19.3,2.5,22.3,13.4C292.3,104.1,290.5,113.9,288,123.1z"/>
<path class="st7" d="M335.3,415.8h-20.9l-0.1-0.2c-0.3-0.5-0.5-1-0.8-1.5c-2.2-4.6-3.1-9.9-3.9-14.5L309,396
	c-0.2-1.2,0.6-2.3,1.8-2.5c0.6-0.1,1.2,0,1.6,0.4c3.2,2.3,6.4,4.6,9.5,6.9c1.2,0.9,2.6,1.9,3.9,3c0.1-0.6,0.3-1.2,0.4-1.8
	c0.3-1.2,1.4-1.9,2.6-1.7c0.6,0.1,1.1,0.5,1.4,1l2.4,3.9c1.8,2.9,3.4,5.7,3,8.8c0,0,0,0.1,0,0.1c-0.1,0.5-0.2,1-0.4,1.5L335.3,415.8
	z"/>
<path class="st8" d="M356.3,416.2l-198.7,0.2c-0.4,0-0.7-0.3-0.7-0.8c0-0.4,0.3-0.7,0.7-0.7l198.7-0.2c0.4,0,0.7,0.3,0.7,0.8
	C357,415.9,356.7,416.2,356.3,416.2L356.3,416.2z"/>
<path class="st4" d="M175.9,136.5L154,118.1c-1.6-1.3-1.8-3.6-0.4-5.2l4-4.8c1.3-1.6,3.6-1.8,5.2-0.4l21.9,18.5
	c1.6,1.3,1.8,3.6,0.4,5.2l-4,4.8C179.7,137.6,177.4,137.8,175.9,136.5z"/>
<path class="st1" d="M155.1,113.2c-0.7,0.8-0.6,2.1,0.2,2.8l21.9,18.5c0.8,0.7,2.1,0.6,2.8-0.2l4-4.8c0.7-0.8,0.6-2.1-0.2-2.8
	L162,108.2c-0.8-0.7-2.1-0.6-2.8,0.2L155.1,113.2z"/>
<path class="st5" d="M168,120.4c-0.2,0.2-0.4,0.3-0.7,0.4l-3.4,0.1c-0.5,0-0.8-0.4-0.9-0.8c0-0.5,0.4-0.8,0.8-0.9l2.2-0.1l-2.2-5.8
	c-0.2-0.4,0.1-0.9,0.5-1.1c0.4-0.2,0.9,0.1,1.1,0.5l2.6,6.9C168.2,119.9,168.1,120.2,168,120.4L168,120.4z"/>
<path class="st3" d="M168.4,121.9c3.1,0.5,5.3,3.4,4.8,6.5c0,0.3-0.1,0.7-0.2,1l16.1,12.4l-10,3.4l-13.8-12.3
	c-2.9-1.2-4.4-4.6-3.1-7.5C163.2,122.9,165.8,121.5,168.4,121.9L168.4,121.9z"/>
<path class="st4" d="M252.4,128l-41.3,25.4c0,0-16.6-6.2-13.4-9s-7.1-4.8-7.1-4.8l-11.4-7.7l-6.6,7.7c0,0,1.2,12.5,3.3,10.4
	s5.1,3.8,5.1,3.8s0.9,6.6,6.8,5s21.6,15.8,21.6,15.8l50.8-18.9L252.4,128z"/>
<path class="st1" d="M177.8,102.8c-1,0-1.9-0.5-2.5-1.2l-7.6-10.1c-1-1.4-0.7-3.3,0.6-4.3c1.4-1,3.3-0.7,4.3,0.6l0,0l4.9,6.6
	l12.7-19.1c0.9-1.4,2.9-1.8,4.3-0.9c1.4,0.9,1.8,2.9,0.9,4.3l-15.1,22.7C179.9,102.3,178.9,102.8,177.8,102.8
	C177.9,102.8,177.9,102.8,177.8,102.8z"/>
</svg>
